<svg width="278" height="64" viewBox="0 0 278 64" fill="none" xmlns="http://www.w3.org/2000/svg">
<path fill-rule="evenodd" clip-rule="evenodd" d="M0 32.7106C0 14.6683 14.6282 0.0428467 32.6677 0.0428467C50.7089 0.0428467 65.3349 14.6683 65.3349 32.7106C65.3349 47.1391 55.9865 59.3801 43.0137 63.7045C41.3578 64.0253 40.7697 63.0067 40.7697 62.1374C40.7697 61.7806 40.7739 61.1552 40.7795 60.3193C40.7907 58.6344 40.8076 56.094 40.8076 53.1725C40.8076 50.1247 39.7635 48.1367 38.5918 47.1229C45.8662 46.3142 53.5084 43.5515 53.5084 31.0044C53.5084 27.4378 52.2409 24.5236 50.1463 22.2359C50.4854 21.4131 51.6042 18.0905 49.826 13.5907C49.826 13.5907 47.0866 12.7128 40.8514 16.9393C38.2407 16.2155 35.4439 15.8525 32.6677 15.8401C29.8915 15.8525 27.0969 16.2155 24.4911 16.9393C18.2483 12.7128 15.5051 13.5907 15.5051 13.5907C13.7313 18.0905 14.8495 21.4131 15.1886 22.2359C13.0989 24.5236 11.8228 27.4378 11.8228 31.0044C11.8228 43.5217 19.4504 46.3228 26.7063 47.1489C25.7721 47.9647 24.9254 49.4058 24.6322 51.5172C22.7681 52.3519 18.0395 53.7957 15.1259 48.8015C15.1259 48.8015 13.3986 45.6656 10.1182 45.4351C10.1182 45.4351 6.93083 45.3935 9.89477 47.421C9.89477 47.421 12.0359 48.425 13.5219 52.2009C13.5219 52.2009 15.4396 58.0315 24.5278 56.0553C24.5355 57.539 24.5479 58.9764 24.5577 60.1047C24.5659 61.0523 24.5722 61.7818 24.5722 62.1374C24.5722 63.0002 23.9728 64.0113 22.3402 63.7089C9.3603 59.3893 0 47.144 0 32.7106ZM11.6752 46.6782C11.9078 46.7897 12.1632 46.741 12.2351 46.5787C12.3174 46.4159 12.1821 46.1924 11.9446 46.0859C11.7082 45.9739 11.4523 46.0204 11.382 46.1876C11.3052 46.3504 11.4383 46.5717 11.6752 46.6782ZM13.175 47.8616C13.3817 48.0899 13.6862 48.1569 13.842 48.0125C14.0048 47.8664 13.9632 47.564 13.7495 47.3336C13.5353 47.1058 13.2399 47.0382 13.0793 47.1827C12.9213 47.3293 12.9613 47.6338 13.175 47.8616ZM14.2146 49.5652C14.417 49.8557 14.7442 49.986 14.9444 49.847C15.1489 49.7047 15.1489 49.3564 14.9493 49.061C14.7442 48.7727 14.4218 48.6472 14.219 48.7867C14.0145 48.9263 14.0145 49.2747 14.2146 49.5652ZM15.9692 51.8467C16.2483 52.1161 16.6297 52.1691 16.8088 51.9716C16.9997 51.7763 16.9132 51.3998 16.6297 51.1369C16.3484 50.8697 15.9649 50.814 15.7836 51.012C15.604 51.2094 15.6836 51.5832 15.9692 51.8467ZM18.402 52.9523C18.772 53.0611 19.1393 52.9447 19.2183 52.6889C19.2951 52.4287 19.0528 52.1311 18.6838 52.0197C18.3111 51.9034 17.9422 52.0246 17.8653 52.2821C17.7907 52.5406 18.0325 52.8403 18.402 52.9523ZM21.2674 53.4908C21.6559 53.4859 21.9696 53.2625 21.9604 52.9931C21.9604 52.7253 21.6423 52.5089 21.2539 52.5165C20.8633 52.523 20.5566 52.7443 20.5566 53.0164C20.561 53.2814 20.8769 53.4995 21.2674 53.4908ZM24.0451 53.4946C24.4308 53.4227 24.7008 53.1528 24.6543 52.8898C24.605 52.6226 24.2594 52.4646 23.8731 52.5317C23.4944 52.6015 23.2196 52.8715 23.2667 53.1409C23.3148 53.4016 23.6659 53.5639 24.0451 53.4946ZM164.958 52.2006H165.045V52.2049L165.088 52.2482H165.085C165.257 52.284 165.412 52.3783 165.523 52.5152C165.639 52.6581 165.699 52.838 165.693 53.022V59.5062C165.693 59.8088 165.564 60.1114 165.304 60.1978C164.872 60.414 162.105 61.1488 159.814 61.1488C154.8 61.1488 147.451 60.0681 147.451 49.5205V35.3417H142.653C142.264 35.3417 141.918 34.9958 141.918 34.5203V28.6413C141.918 28.2955 142.134 27.9929 142.48 27.9064C142.782 27.8632 147.494 26.6961 147.494 26.6961V17.3156C147.494 16.9697 147.71 16.7536 148.1 16.7536H157.437C157.826 16.7536 158.042 16.9697 158.042 17.3156V26.4367H164.915C165.261 26.4367 165.607 26.7825 165.607 27.1716V34.5203C165.607 34.9958 165.304 35.3417 164.915 35.3417H158.042V48.8764C158.042 50.9081 159.209 52.4643 162.581 52.4643C163.254 52.4643 163.904 52.3803 164.393 52.317C164.681 52.2798 164.913 52.2498 165.062 52.2482C165.044 52.2461 165.028 52.2351 165.012 52.2242C164.996 52.2124 164.979 52.2006 164.958 52.2006ZM261.011 34.2177C264.34 33.8719 267.495 34.9094 267.495 42.7337C267.495 50.9902 266.069 52.5897 261.616 52.46C258.461 52.3735 256.343 50.9038 256.343 50.9038V35.6875C256.343 35.6875 258.418 34.3907 261.011 34.2177ZM264.815 61.1056C273.202 61.1056 278 56.8693 278 42.042C278 27.2148 270.349 25.2695 265.161 25.2695L265.204 25.356C260.017 25.356 256.472 27.6471 256.472 27.6471V11.3501C256.472 10.961 256.126 10.6152 255.737 10.6152H246.53C246.141 10.6152 245.795 10.961 245.795 11.3501L245.709 59.3765C245.709 59.7655 246.098 60.1114 246.53 60.1114H252.928C253.187 60.1114 253.403 60.0249 253.533 59.7655C253.749 59.5062 253.922 57.5177 253.922 57.5177C253.922 57.5177 257.726 61.1056 264.815 61.1056ZM231.227 26.4367H240.305C240.781 26.4367 241.126 26.7825 241.126 27.1716L241.04 59.4629C241.04 59.852 240.781 60.1978 240.305 60.1978H234.512C234.21 60.1978 233.907 60.0249 233.821 59.8088C233.691 59.5494 233.475 57.8635 233.475 57.8635C233.475 57.8635 228.59 61.1921 222.581 61.1921C215.276 61.1921 209.959 58.8145 209.959 49.3043V27.2148C209.959 26.8257 210.305 26.4799 210.694 26.4799H219.945C220.334 26.4799 220.679 26.8257 220.679 27.2148V47.7481C220.679 50.9902 221.63 52.46 224.873 52.46C228.115 52.46 230.492 50.7741 230.492 50.7741V27.258C230.492 26.7825 230.752 26.4367 231.227 26.4367ZM128.647 26.3935H137.854C138.244 26.3935 138.589 26.7393 138.589 27.1283V58.9874C138.589 59.7655 138.373 60.1546 137.509 60.1546H129.209C128.474 60.1546 127.912 59.852 127.912 58.9874V27.258C127.912 26.7825 128.258 26.3935 128.647 26.3935ZM127.35 17.7478C127.35 14.4193 129.987 11.7824 133.316 11.7824C136.558 11.7824 139.195 14.4193 139.195 17.7478C139.195 21.0764 136.558 23.7133 133.316 23.7133C129.987 23.7133 127.35 21.0764 127.35 17.7478ZM195.477 10.7017H204.599C204.988 10.7017 205.333 11.0475 205.333 11.4366V59.4629C205.333 59.852 204.988 60.1978 204.599 60.1978H195.391C195.002 60.1978 194.656 59.852 194.656 59.4629L194.743 38.9296H180.434V59.4629C180.434 59.852 180.088 60.1978 179.699 60.1978H170.492C170.146 60.1978 169.757 59.852 169.757 59.4629V11.4366C169.757 11.0475 170.103 10.7017 170.492 10.7017H179.699C180.088 10.7017 180.434 11.0475 180.434 11.4366V29.1168H194.743V11.4366C194.743 11.0475 195.088 10.7017 195.477 10.7017ZM123.027 56.7828V31.9699C123.027 31.5808 122.681 31.235 122.206 31.235H106.039C105.563 31.235 105.217 31.5808 105.217 31.9699V39.9238C105.217 40.3129 105.563 40.6587 106.039 40.6587H112.393V50.6012C112.393 50.6012 110.967 51.0767 106.99 51.0767C102.321 51.0767 95.8368 49.3908 95.8368 35.0823C95.8368 20.7738 102.667 18.9582 109.021 18.9582C113.944 18.9582 116.33 19.7229 117.892 20.2238C118.072 20.2815 118.241 20.3356 118.402 20.3848C118.877 20.5144 119.266 20.0389 119.266 19.6499L121.082 11.9553C121.082 11.7391 120.996 11.5662 120.823 11.3501C120.217 10.961 116.413 8.84287 106.99 8.84287C96.0962 8.79964 84.9433 13.3818 84.9433 35.601C84.9433 57.8203 97.6956 61.1921 108.459 61.1921C117.364 61.1921 122.768 57.3448 122.768 57.3448C122.984 57.2583 123.027 56.9557 123.027 56.7828Z" fill="url(#paint0_linear_150_72)"/>
<defs>
<linearGradient id="paint0_linear_150_72" x1="-1.10489e-06" y1="32" x2="278" y2="32" gradientUnits="userSpaceOnUse">
<stop stop-color="#25FF6B"/>
<stop offset="1" stop-color="#FEFF1B"/>
</linearGradient>
</defs>
</svg>
