<svg width="286" height="70" viewBox="0 0 286 70" fill="none" xmlns="http://www.w3.org/2000/svg">
<g clip-path="url(#clip0_150_82)">
<path d="M281.374 64.7483C281.549 64.7501 281.723 64.716 281.885 64.6482C282.046 64.5804 282.192 64.4804 282.313 64.3543C282.434 64.2282 282.528 64.0788 282.588 63.9153C282.649 63.7518 282.675 63.5776 282.665 63.4037C282.665 62.4501 282.085 61.9945 280.897 61.9945H278.977V66.9871H279.699V64.8108H280.586L280.607 64.8373L281.984 66.9871H282.756L281.274 64.7621L281.374 64.7483ZM280.538 64.2482H279.701V62.5603H280.762C281.311 62.5603 281.936 62.6493 281.936 63.3624C281.936 64.1825 281.303 64.2482 280.534 64.2482" fill="url(#paint0_linear_150_82)"/>
<path fill-rule="evenodd" clip-rule="evenodd" d="M262.533 58.4916H252.291V42.5622C252.291 38.7637 252.223 33.8739 246.964 33.8739C241.63 33.8739 240.814 38.0125 240.814 42.2857V58.4905H230.572V25.7333H240.404V30.2099H240.542C241.526 28.5391 242.948 27.1645 244.656 26.2327C246.364 25.3009 248.295 24.8467 250.243 24.9185C260.623 24.9185 262.537 31.6997 262.537 40.5215L262.533 58.4916ZM219.016 21.2557C217.841 21.2559 216.692 20.9099 215.714 20.2615C214.737 19.613 213.975 18.6913 213.525 17.6128C213.075 16.5342 212.957 15.3474 213.186 14.2023C213.415 13.0573 213.981 12.0054 214.812 11.1797C215.643 10.3541 216.702 9.7917 217.855 9.56374C219.007 9.33577 220.202 9.45245 221.289 9.89903C222.375 10.3456 223.303 11.102 223.956 12.0726C224.61 13.0432 224.958 14.1844 224.959 15.3518C224.959 16.127 224.805 16.8946 224.507 17.6108C224.208 18.327 223.77 18.9778 223.219 19.526C222.667 20.0742 222.012 20.5092 221.291 20.8059C220.57 21.1027 219.797 21.2555 219.016 21.2557ZM224.137 58.4916H213.885V25.7333H224.137V58.4916ZM267.639 0.00418876H208.738C207.401 -0.0107948 206.113 0.501962 205.157 1.42978C204.2 2.3576 203.654 3.62458 203.638 4.9523V63.6929C203.653 65.0213 204.199 66.2891 205.156 67.2179C206.112 68.1467 207.401 68.6605 208.738 68.6463H267.639C268.979 68.663 270.271 68.1507 271.231 67.222C272.191 66.2932 272.741 65.0239 272.759 63.6929V4.94807C272.74 3.61771 272.19 2.34929 271.23 1.42149C270.27 0.493695 268.978 -0.017597 267.639 -5.11652e-05V0.00418876ZM45.3532 25.7217H35.1115V58.4789H45.3532V25.7217ZM43.5328 10.4314C42.5559 9.78286 41.4074 9.43661 40.2324 9.4364C39.4521 9.43626 38.6794 9.58879 37.9584 9.88526C37.2375 10.1817 36.5824 10.6163 36.0306 11.1643C35.4788 11.7122 35.041 12.3628 34.7424 13.0787C34.4437 13.7947 34.29 14.5621 34.29 15.3371C34.29 16.5041 34.6385 17.6448 35.2912 18.6152C35.944 19.5855 36.8718 20.3418 37.9574 20.7885C39.043 21.2351 40.2375 21.352 41.39 21.1244C42.5424 20.8968 43.6011 20.3349 44.432 19.5098C45.263 18.6847 45.8289 17.6334 46.0582 16.4889C46.2876 15.3443 46.1701 14.1579 45.7206 13.0797C45.2711 12.0015 44.5097 11.0799 43.5328 10.4314ZM10.661 10.158H0V58.4969H30.3975V48.7257H10.661V10.158ZM88.1953 10.1505H98.437V39.0392L110.044 25.7069H122.601L109.159 40.8723L122.318 58.4926H109.446L98.5736 42.3006H98.4391V58.4905H88.1974L88.1953 10.1505ZM60.8655 25.7249H51.0303L51.0377 58.4726H61.2794V42.2741C61.2794 38.002 62.1009 33.8623 67.4244 33.8623C72.6882 33.8623 72.7586 38.749 72.7586 42.5506V58.4768H83.0003V40.5131C83.0003 31.6966 81.0886 24.9101 70.7029 24.9101C68.7554 24.8372 66.8247 25.2909 65.1167 26.2229C63.4087 27.1548 61.9876 28.53 61.0052 30.2015H60.8655V25.7249ZM144.169 38.2902C144.188 37.465 144.039 36.6444 143.73 35.8781C143.421 35.1119 142.958 34.416 142.37 33.8325C141.783 33.249 141.082 32.7901 140.31 32.4836C139.538 32.1771 138.712 32.0294 137.881 32.0494C136.091 31.9388 134.33 32.5311 132.976 33.6985C131.622 34.8659 130.784 36.515 130.643 38.2902H144.169ZM152.844 52.8061C151.143 54.8558 149.003 56.5039 146.581 57.6311C144.158 58.7583 141.514 59.3364 138.839 59.3234C128.597 59.3234 120.397 52.5338 120.397 42.0198C120.397 31.5059 128.596 24.7194 138.839 24.7194C148.412 24.7194 154.415 31.5006 154.415 42.0198V45.2091H130.643C130.939 47.0178 131.884 48.6594 133.302 49.8313C134.72 51.0033 136.517 51.6266 138.362 51.5865C139.82 51.5776 141.252 51.2066 142.529 50.5075C143.805 49.8083 144.885 48.8032 145.671 47.5835L152.844 52.8061ZM167.57 41.9837C167.57 37.0356 170.642 33.6397 175.763 33.6397C180.89 33.6397 183.964 37.0271 183.964 41.9837C183.964 46.9403 180.885 50.3309 175.763 50.3309C170.641 50.3309 167.57 46.9318 167.57 41.9837ZM183.964 58.4725H193.392L193.391 10.1473H183.14V29.0296H183.006C180.683 25.8372 176.724 24.6854 172.486 24.6854C163.056 24.6854 157.319 33.0972 157.319 42.2581C157.319 52.2328 163.801 59.2862 173.642 59.2862C175.624 59.2629 177.575 58.7853 179.341 57.8906C181.107 56.996 182.641 55.7084 183.824 54.1283H183.964V58.4725ZM277.314 61.1653C278.188 60.2839 279.379 59.7824 280.625 59.7705H280.716C281.962 59.7824 283.152 60.2839 284.027 61.1653C284.902 62.0467 285.39 63.2363 285.384 64.4739C285.378 65.7115 284.878 66.8964 283.995 67.7694C283.112 68.6424 281.916 69.1325 280.67 69.1325C279.424 69.1325 278.229 68.6424 277.346 67.7694C276.462 66.8964 275.963 65.7115 275.957 64.4739C275.951 63.2363 276.439 62.0467 277.314 61.1653ZM278.318 67.9429C279.005 68.3826 279.808 68.6101 280.625 68.5966L280.626 68.5945H280.733C281.805 68.5714 282.824 68.1264 283.566 67.3572C284.308 66.5881 284.711 65.5578 284.689 64.4929V64.4241C284.675 63.6123 284.419 62.8229 283.954 62.1555C283.489 61.4881 282.834 60.9727 282.074 60.6746C281.314 60.3764 280.482 60.3089 279.683 60.4805C278.884 60.6521 278.154 61.0552 277.586 61.6387C277.017 62.2222 276.636 62.96 276.49 63.7588C276.344 64.5575 276.439 65.3814 276.765 66.1262C277.09 66.8709 277.631 67.5031 278.318 67.9429Z" fill="url(#paint1_linear_150_82)"/>
</g>
<defs>
<linearGradient id="paint0_linear_150_82" x1="280.866" y1="61.9945" x2="280.866" y2="66.9871" gradientUnits="userSpaceOnUse">
<stop stop-color="#25FF70"/>
<stop offset="1" stop-color="#FEFF18"/>
</linearGradient>
<linearGradient id="paint1_linear_150_82" x1="-1.66554e-07" y1="35" x2="275" y2="35" gradientUnits="userSpaceOnUse">
<stop stop-color="#25FF70"/>
<stop offset="1" stop-color="#FEFF18"/>
</linearGradient>
<clipPath id="clip0_150_82">
<rect width="285.385" height="69.2164" fill="white"/>
</clipPath>
</defs>
</svg>
